<?xml version="1.0" encoding="UTF-8" standalone="no"?>
<!-- Created with Inkscape (http://www.inkscape.org/) -->

<svg
   xmlns:dc="http://purl.org/dc/elements/1.1/"
   xmlns:cc="http://creativecommons.org/ns#"
   xmlns:rdf="http://www.w3.org/1999/02/22-rdf-syntax-ns#"
   xmlns:svg="http://www.w3.org/2000/svg"
   xmlns="http://www.w3.org/2000/svg"
   xmlns:xlink="http://www.w3.org/1999/xlink"
   xmlns:sodipodi="http://sodipodi.sourceforge.net/DTD/sodipodi-0.dtd"
   xmlns:inkscape="http://www.inkscape.org/namespaces/inkscape"
   width="300mm"
   height="64mm"
   id="svg2"
   version="1.1"
   inkscape:version="0.91 r13725"
   sodipodi:docname="logo.svg"
   viewBox="0 0 1133.8583 241.88977"
   inkscape:export-filename="/home/laurence/src/kotlin-argparser/logo.png"
   inkscape:export-xdpi="63.895985"
   inkscape:export-ydpi="63.895985">
  <defs
     id="defs4">
    <linearGradient
       inkscape:collect="always"
       id="linearGradient4153">
      <stop
         style="stop-color:#000000;stop-opacity:1;"
         offset="0"
         id="stop4155" />
      <stop
         style="stop-color:#57ff27;stop-opacity:1"
         offset="1"
         id="stop4157" />
    </linearGradient>
    <linearGradient
       inkscape:collect="always"
       xlink:href="#linearGradient4153"
       id="linearGradient4159"
       x1="394.86768"
       y1="423.15414"
       x2="753.21582"
       y2="64.05175"
       gradientUnits="userSpaceOnUse"
       gradientTransform="translate(-299.34663,163.57387)" />
  </defs>
  <sodipodi:namedview
     id="base"
     pagecolor="#ffffff"
     bordercolor="#666666"
     borderopacity="1.0"
     inkscape:pageopacity="0.0"
     inkscape:pageshadow="2"
     inkscape:zoom="1.8730148"
     inkscape:cx="531.49606"
     inkscape:cy="113.38583"
     inkscape:document-units="in"
     inkscape:current-layer="layer1"
     showgrid="false"
     inkscape:window-width="956"
     inkscape:window-height="1152"
     inkscape:window-x="0"
     inkscape:window-y="206"
     inkscape:window-maximized="0"
     units="mm"
     inkscape:snap-global="true"
     inkscape:snap-nodes="true"
     inkscape:snap-intersection-paths="true"
     inkscape:object-nodes="true"
     inkscape:snap-midpoints="true"
     showguides="true"
     inkscape:guide-bbox="true" />
  <metadata
     id="metadata7">
    <rdf:RDF>
      <cc:Work
         rdf:about="">
        <dc:format>image/svg+xml</dc:format>
        <dc:type
           rdf:resource="http://purl.org/dc/dcmitype/StillImage" />
        <dc:title />
      </cc:Work>
    </rdf:RDF>
  </metadata>
  <g
     inkscape:label="Layer 1"
     inkscape:groupmode="layer"
     id="layer1"
     transform="translate(0,-810.47231)">
    <rect
       style="opacity:1;fill:#000000;fill-opacity:1;stroke:#57ff27;stroke-width:3.7795278;stroke-linecap:square;stroke-linejoin:round;stroke-miterlimit:10;stroke-dasharray:none;stroke-dashoffset:0;stroke-opacity:0.3764706"
       id="rect4178"
       width="1077.2404"
       height="191.52072"
       x="28.308992"
       y="835.65686"
       ry="31.226183"
       inkscape:export-xdpi="63.901615"
       inkscape:export-ydpi="63.901615" />
    <g
       style="stroke:none"
       id="g4190"
       transform="matrix(0.37500685,0,0,0.37500685,15.100437,572.65139)">
      <path
         inkscape:connector-curvature="0"
         id="path4137"
         d="m 95.521058,228.00057 0,358.34902 358.343462,0 -179.16896,-179.17451 179.16896,-179.17451 -358.343462,0 z"
         style="fill:#57ff27;fill-opacity:1;fill-rule:evenodd;stroke:#000000;stroke-width:1.00785565;stroke-linecap:butt;stroke-linejoin:miter;stroke-miterlimit:4;stroke-dasharray:none;stroke-opacity:1" />
      <path
         sodipodi:nodetypes="ccccc"
         inkscape:connector-curvature="0"
         id="path4141"
         d="m 95.521058,406.79969 179.174072,-179.17407 179.17406,0 -358.348132,359.10239 z"
         style="fill:url(#linearGradient4159);fill-opacity:1;fill-rule:evenodd;stroke:none;stroke-width:1.06666672px;stroke-linecap:butt;stroke-linejoin:miter;stroke-opacity:1" />
    </g>
    <text
       xml:space="preserve"
       style="font-style:normal;font-variant:normal;font-weight:normal;font-stretch:normal;font-size:14.9333334px;line-height:125%;font-family:'Droid Sans';-inkscape-font-specification:'Droid Sans';text-align:end;letter-spacing:0px;word-spacing:0px;text-anchor:end;fill:#000000;fill-opacity:1;stroke:none;stroke-width:1px;stroke-linecap:butt;stroke-linejoin:miter;stroke-opacity:1"
       x="331.41644"
       y="1161.9469"
       id="text4174"
       sodipodi:linespacing="125%"
       inkscape:export-xdpi="72.180183"
       inkscape:export-ydpi="72.180183"><tspan
         sodipodi:role="line"
         id="tspan4176"
         x="331.41644"
         y="1161.9469" /></text>
    <g
       id="g4335"
       transform="translate(190.66738,-12.081231)"
       inkscape:export-xdpi="63.901615"
       inkscape:export-ydpi="63.901615">
      <g
         transform="translate(75.779558,440.54317)"
         id="text4166"
         style="font-style:normal;font-variant:normal;font-weight:normal;font-stretch:normal;font-size:176.06542969px;line-height:125%;font-family:'Droid Sans';-inkscape-font-specification:'Droid Sans';text-align:end;letter-spacing:0px;word-spacing:0px;text-anchor:end;fill:#57ff27;fill-opacity:1;stroke:none;stroke-width:1px;stroke-linecap:butt;stroke-linejoin:miter;stroke-opacity:1">
        <path
           inkscape:connector-curvature="0"
           id="path4251"
           d="m 233.32762,509.54481 10.66667,-12.32458 38.38226,0 -10.66667,12.32458 z"
           style="font-style:normal;font-variant:normal;font-weight:normal;font-stretch:normal;font-family:Teko;-inkscape-font-specification:Teko;fill:#57ff27;fill-opacity:1;stroke:none;stroke-opacity:1" />
        <path
           inkscape:connector-curvature="0"
           id="path4228"
           d="m 176.89662,509.54481 10.66667,-12.32458 38.38227,0 -10.66667,12.32458 z"
           style="font-style:normal;font-variant:normal;font-weight:normal;font-stretch:normal;font-family:Teko;-inkscape-font-specification:Teko;fill:#57ff27;fill-opacity:1;stroke:none;stroke-opacity:1" />
        <path
           inkscape:connector-curvature="0"
           id="path4230"
           style="font-style:normal;font-variant:normal;font-weight:normal;font-stretch:normal;font-family:Teko;-inkscape-font-specification:Teko;fill:#57ff27;fill-opacity:1;stroke:none;stroke-opacity:1"
           d="m 329.63159,469.22582 15.84589,0 0,85.91993 -15.84589,0 0,-6.86655 q -2.28885,6.86655 -10.91605,6.86655 l -6.33836,0 q -15.84589,0 -15.84589,-15.49376 l 0,-54.75634 q 0,-15.66983 15.84589,-15.66983 l 6.33836,0 q 8.6272,0 10.91605,6.86655 l 0,-6.86655 z m -11.97245,73.06716 6.16229,0 q 3.16918,0 4.40164,-1.40853 1.40852,-1.40852 1.40852,-4.75376 l 0,-47.8898 q 0,-3.34524 -1.40852,-4.75377 -1.23246,-1.40852 -4.40164,-1.40852 l -6.16229,0 q -3.16917,0 -4.22557,1.05639 -1.05639,0.88033 -1.05639,4.04951 l 0,50.00258 q 0,3.16918 1.05639,4.22557 1.0564,0.88033 4.22557,0.88033 z" />
        <path
           sodipodi:nodetypes="sccssccccccs"
           inkscape:connector-curvature="0"
           id="path4232"
           style="font-style:normal;font-variant:normal;font-weight:normal;font-stretch:normal;font-family:Teko;-inkscape-font-specification:Teko;fill:#57ff27;fill-opacity:1;stroke:none;stroke-opacity:1"
           d="m 387.41625,469.04976 14.18797,0 -10.66667,13.7331 -6.33835,0 c -7.39475,0 -11.09212,4.34295 -11.09212,13.02884 l 0,59.33405 -15.84589,0 0,-85.91993 15.84589,0 0,10.56393 c 0.93901,-3.0518 2.58229,-5.57541 4.92983,-7.57082 2.46491,-2.11278 5.45803,-3.16917 8.97934,-3.16917 z" />
        <path
           sodipodi:nodetypes="ccssccssscssssssccsscsscsscssss"
           inkscape:connector-curvature="0"
           id="path4234"
           style="font-style:normal;font-variant:normal;font-weight:normal;font-stretch:normal;font-family:Teko;-inkscape-font-specification:Teko;fill:#57ff27;fill-opacity:1;stroke:none;stroke-opacity:1"
           d="m 436.99154,469.22582 15.84589,0 0,94.7232 c 0,10.32917 -5.51672,15.49376 -16.55015,15.49376 l -29.40293,0 10.66667,-12.50064 14.15856,0 c 2.11279,0 3.52131,-0.35213 4.22557,-1.0564 0.70426,-0.70426 1.05639,-2.05409 1.05639,-4.0495 l 0,-14.61343 c -1.5259,4.5777 -5.16459,6.86655 -10.91606,6.86655 l -6.33835,0 c -10.56393,0 -15.84589,-5.22327 -15.84589,-15.66982 l 0,-53.52389 c 0,-10.44655 5.28196,-15.66983 15.84589,-15.66983 l 6.33835,0 c 5.75147,0 9.39016,2.28885 10.91606,6.86655 z m -11.97245,72.01076 6.16229,0 c 2.11279,0 3.58,-0.46951 4.40164,-1.40852 0.93901,-0.93901 1.40852,-2.5236 1.40852,-4.75377 l 0,-46.8334 c 0,-2.23016 -0.46951,-3.81475 -1.40852,-4.75377 -0.82164,-0.93901 -2.28885,-1.40852 -4.40164,-1.40852 l -6.16229,0 c -2.11279,0 -3.52131,0.35213 -4.22557,1.05639 -0.70426,0.58689 -1.05639,1.93672 -1.05639,4.04951 l 0,48.94619 c 0,1.99541 0.35213,3.34524 1.05639,4.0495 0.70426,0.70426 2.11278,1.05639 4.22557,1.05639 z" />
        <path
           sodipodi:nodetypes="ssssssccccccssscsscsscsscs"
           inkscape:connector-curvature="0"
           id="path4236"
           style="font-style:normal;font-variant:normal;font-weight:normal;font-stretch:normal;font-family:Teko;-inkscape-font-specification:Teko;fill:#57ff27;fill-opacity:1;stroke:none;stroke-opacity:1"
           d="m 492.84974,469.22582 6.16229,0 c 10.6813,0 16.02195,5.22328 16.02195,15.66983 l 0,54.75634 c 0,10.32917 -5.34065,15.49376 -16.02195,15.49376 l -6.16229,0 c -5.75147,0 -9.39016,-2.28885 -10.91606,-6.86655 l 0,31.16358 -15.84589,10.66667 0,-120.88363 15.84589,0 0,6.86655 c 1.5259,-4.5777 5.16459,-6.86655 10.91606,-6.86655 z m 6.33835,67.96126 0,-50.00258 c 0,-2.11279 -0.35213,-3.46262 -1.05639,-4.04951 -0.70426,-0.70426 -2.11278,-1.05639 -4.22557,-1.05639 l -6.16229,0 c -2.11279,0 -3.63869,0.46951 -4.5777,1.40852 -0.82164,0.93902 -1.23246,2.52361 -1.23246,4.75377 l 0,47.8898 c 0,2.23016 0.41082,3.81475 1.23246,4.75376 0.93901,0.93902 2.46491,1.40853 4.5777,1.40853 l 6.16229,0 c 2.11279,0 3.52131,-0.29344 4.22557,-0.88033 0.70426,-0.70426 1.05639,-2.11278 1.05639,-4.22557 z" />
        <path
           inkscape:connector-curvature="0"
           id="path4238"
           style="font-style:normal;font-variant:normal;font-weight:normal;font-stretch:normal;font-family:Teko;-inkscape-font-specification:Teko;fill:#57ff27;fill-opacity:1;stroke:none;stroke-opacity:1"
           d="m 561.40523,469.22582 15.84589,0 0,85.91993 -15.84589,0 0,-6.86655 q -2.28885,6.86655 -10.91606,6.86655 l -6.33835,0 q -15.84589,0 -15.84589,-15.49376 l 0,-54.75634 q 0,-15.66983 15.84589,-15.66983 l 6.33835,0 q 8.62721,0 10.91606,6.86655 l 0,-6.86655 z m -11.97245,73.06716 6.16229,0 q 3.16918,0 4.40163,-1.40853 1.40853,-1.40852 1.40853,-4.75376 l 0,-47.8898 q 0,-3.34524 -1.40853,-4.75377 -1.23245,-1.40852 -4.40163,-1.40852 l -6.16229,0 q -3.16918,0 -4.22557,1.05639 -1.05639,0.88033 -1.05639,4.04951 l 0,50.00258 q 0,3.16918 1.05639,4.22557 1.05639,0.88033 4.22557,0.88033 z" />
        <path
           sodipodi:nodetypes="sccssccccccs"
           inkscape:connector-curvature="0"
           id="path4240"
           style="font-style:normal;font-variant:normal;font-weight:normal;font-stretch:normal;font-family:Teko;-inkscape-font-specification:Teko;fill:#57ff27;fill-opacity:1;stroke:none;stroke-opacity:1"
           d="m 619.18987,469.04976 14.18797,0 -10.66667,13.7331 -6.33835,0 c -7.39475,0 -11.09212,4.34295 -11.09212,13.02884 l 0,59.33405 -15.84589,0 0,-85.91993 15.84589,0 0,10.56393 c 0.93901,-3.0518 2.58229,-5.57541 4.92983,-7.57082 2.46491,-2.11278 5.45803,-3.16917 8.97934,-3.16917 z" />
        <path
           inkscape:connector-curvature="0"
           id="path4242"
           style="font-style:normal;font-variant:normal;font-weight:normal;font-stretch:normal;font-family:Teko;-inkscape-font-specification:Teko;fill:#57ff27;fill-opacity:1;stroke:none;stroke-opacity:1"
           d="m 664.35325,537.89134 0,-14.2613 q 0,-3.16918 -1.05639,-4.0495 -1.0564,-1.0564 -4.22558,-1.0564 l -8.97933,0 q -16.37409,0 -16.37409,-15.49376 l 0,-18.13473 q 0,-15.66983 16.37409,-15.66983 l 12.85277,0 q 16.55015,0 16.55015,15.66983 l 0,8.27507 -15.49375,0 0,-6.69049 q 0,-3.16917 -1.0564,-4.0495 -1.05639,-1.05639 -4.22557,-1.05639 l -4.22557,0 q -3.16917,0 -4.22557,1.05639 -1.05639,0.88033 -1.05639,4.0495 l 0,14.7895 q 0,3.16918 1.05639,4.22557 1.0564,0.88033 4.22557,0.88033 l 9.15541,0 q 16.19802,0 16.19802,15.66982 l 0,17.60654 q 0,15.49376 -16.37409,15.49376 l -13.02884,0 q -16.37409,0 -16.37409,-15.49376 l 0,-8.45114 15.49376,0 0,6.69049 q 0,3.16918 1.05639,4.22557 1.0564,0.88033 4.22557,0.88033 l 4.22557,0 q 3.16918,0 4.22558,-0.88033 1.05639,-1.05639 1.05639,-4.22557 z" />
        <path
           inkscape:connector-curvature="0"
           id="path4244"
           style="font-style:normal;font-variant:normal;font-weight:normal;font-stretch:normal;font-family:Teko;-inkscape-font-specification:Teko;fill:#57ff27;fill-opacity:1;stroke:none;stroke-opacity:1"
           d="m 708.38135,469.22582 17.25441,0 q 16.55015,0 16.55015,15.66983 l 0,32.21997 -34.68489,0 0,20.42359 q 0,2.99311 1.0564,4.0495 1.05639,1.0564 4.22557,1.0564 l 8.09901,0 q 3.16917,0 4.22557,-1.0564 1.05639,-1.05639 1.05639,-4.22557 l 0,-7.04261 15.49376,0 0,9.33146 q 0,15.49376 -16.37409,15.49376 l -16.90228,0 q -16.37408,0 -16.37408,-15.49376 l 0,-54.75634 q 0,-15.66983 16.37408,-15.66983 z m -0.88033,36.26948 19.01507,0 0,-18.66293 q 0,-2.99312 -1.05639,-4.04951 -0.88033,-1.05639 -4.04951,-1.05639 l -8.6272,0 q -3.16918,0 -4.22557,1.05639 -1.0564,1.05639 -1.0564,4.04951 l 0,18.66293 z" />
        <path
           sodipodi:nodetypes="sccssccccccs"
           inkscape:connector-curvature="0"
           id="path4246"
           style="font-style:normal;font-variant:normal;font-weight:normal;font-stretch:normal;font-family:Teko;-inkscape-font-specification:Teko;fill:#57ff27;fill-opacity:1;stroke:none;stroke-opacity:1"
           d="m 782.18794,469.04976 14.18798,0 -10.66667,13.7331 -6.33835,0 c -7.39475,0 -11.09213,4.34295 -11.09213,13.02884 l 0,59.33405 -15.84588,0 0,-85.91993 15.84588,0 0,10.56393 c 0.93902,-3.0518 2.5823,-5.57541 4.92984,-7.57082 2.46491,-2.11278 5.45802,-3.16917 8.97933,-3.16917 z" />
      </g>
      <path
         sodipodi:nodetypes="cccccccccccc"
         d="m -22.625901,885.23116 -54.633746,55.15897 54.458076,54.80764 -20.415214,0 -53.755419,-54.80764 54.106749,-55.15897 z m -97.005999,110.14231 0,-109.96661 15.8099,0 0,109.96661 z"
         style="font-style:normal;font-variant:normal;font-weight:normal;font-stretch:normal;font-size:medium;line-height:125%;font-family:Teko;-inkscape-font-specification:Teko;text-align:end;letter-spacing:0px;word-spacing:0px;text-anchor:end;fill:#57ff27;fill-opacity:1;stroke:none;stroke-width:1px;stroke-linecap:butt;stroke-linejoin:miter;stroke-opacity:1"
         id="path4311"
         inkscape:connector-curvature="0" />
      <path
         d="m 2.8159179,909.6487 18.7962101,0 q 16.336892,0 16.336892,15.63423 l 0,54.63198 q 0,15.45856 -16.336892,15.45856 l -18.7962101,0 q -16.1612269,0 -16.1612269,-15.45856 l 0,-54.63198 q 0,-15.63423 16.1612269,-15.63423 z m 19.4988721,67.98256 0,-50.24034 q 0,-3.16198 -1.053993,-4.21597 -1.053993,-1.05399 -4.215973,-1.05399 l -9.6616028,0 q -3.1619792,0 -4.2159723,1.05399 -0.8783275,1.05399 -0.8783275,4.21597 l 0,50.24034 q 0,3.16198 0.8783275,4.21597 1.0539931,1.05399 4.2159723,1.05399 l 9.6616028,0 q 3.16198,0 4.215973,-1.05399 1.053993,-1.05399 1.053993,-4.21597 z"
         style="font-style:normal;font-variant:normal;font-weight:normal;font-stretch:normal;font-size:medium;line-height:125%;font-family:Teko;-inkscape-font-specification:Teko;text-align:end;letter-spacing:0px;word-spacing:0px;text-anchor:end;fill:#57ff27;fill-opacity:1;stroke:none;stroke-width:1px;stroke-linecap:butt;stroke-linejoin:miter;stroke-opacity:1"
         id="path4313"
         inkscape:connector-curvature="0" />
      <path
         sodipodi:nodetypes="ccscsccssccccccccc"
         d="m 81.363111,922.47229 -11.769589,0 0,54.28064 c 0,2.10799 0.292776,3.51331 0.878328,4.21597 0.702662,0.58555 2.107986,0.87833 4.215972,0.87833 l 6.675289,0 -10.666667,13.52624 -0.575925,0 c -11.008373,0 -16.512559,-5.15285 -16.512559,-15.45856 l 0,-57.44262 -8.080613,0 0,-12.82359 8.080613,0 0,-14.58023 15.985562,-10.66667 0,25.2469 11.769589,0 z"
         style="font-style:normal;font-variant:normal;font-weight:normal;font-stretch:normal;font-size:medium;line-height:125%;font-family:Teko;-inkscape-font-specification:Teko;text-align:end;letter-spacing:0px;word-spacing:0px;text-anchor:end;fill:#57ff27;fill-opacity:1;stroke:none;stroke-width:1px;stroke-linecap:butt;stroke-linejoin:miter;stroke-opacity:1"
         id="path4315"
         inkscape:connector-curvature="0" />
      <path
         sodipodi:nodetypes="ccccc"
         d="m 106.61502,995.37347 -15.809899,0 0,-117.52022 15.809899,-10.66667 z"
         style="font-style:normal;font-variant:normal;font-weight:normal;font-stretch:normal;font-size:medium;line-height:125%;font-family:Teko;-inkscape-font-specification:Teko;text-align:end;letter-spacing:0px;word-spacing:0px;text-anchor:end;fill:#57ff27;fill-opacity:1;stroke:none;stroke-width:1px;stroke-linecap:butt;stroke-linejoin:miter;stroke-opacity:1"
         id="path4317"
         inkscape:connector-curvature="0" />
      <path
         sodipodi:nodetypes="cccccccccc"
         d="m 121.67559,896.51181 0,-18.83423 16.51256,-10.66667 0,18.83423 z m 16.16123,98.86166 -15.8099,0 0,-85.72477 15.8099,0 z"
         style="font-style:normal;font-variant:normal;font-weight:normal;font-stretch:normal;font-size:medium;line-height:125%;font-family:Teko;-inkscape-font-specification:Teko;text-align:end;letter-spacing:0px;word-spacing:0px;text-anchor:end;fill:#57ff27;fill-opacity:1;stroke:none;stroke-width:1px;stroke-linecap:butt;stroke-linejoin:miter;stroke-opacity:1"
         id="path4319"
         inkscape:connector-curvature="0" />
      <path
         d="m 179.94988,909.6487 6.14829,0 q 15.98557,0 15.98557,15.63423 l 0,70.09054 -15.8099,0 0,-67.80688 q 0,-3.16198 -1.05399,-4.04031 -1.054,-1.05399 -4.21597,-1.05399 l -6.1483,0 q -3.16198,0 -4.5673,1.40532 -1.22966,1.40532 -1.22966,4.74297 l 0,66.75289 -15.8099,0 0,-85.72477 15.8099,0 0,6.85096 q 2.28365,-6.85096 10.89126,-6.85096 z"
         style="font-style:normal;font-variant:normal;font-weight:normal;font-stretch:normal;font-size:medium;line-height:125%;font-family:Teko;-inkscape-font-specification:Teko;text-align:end;letter-spacing:0px;word-spacing:0px;text-anchor:end;fill:#57ff27;fill-opacity:1;stroke:none;stroke-width:1px;stroke-linecap:butt;stroke-linejoin:miter;stroke-opacity:1"
         id="path4321"
         inkscape:connector-curvature="0" />
      <path
         inkscape:connector-curvature="0"
         id="path4331"
         d="M -77.259648,885.40686 Z"
         style="fill:none;fill-rule:evenodd;stroke:#000000;stroke-width:1.06666672px;stroke-linecap:butt;stroke-linejoin:miter;stroke-opacity:1" />
    </g>
    <g
       id="g4328"
       transform="translate(0,34.133332)"
       inkscape:export-xdpi="63.901615"
       inkscape:export-ydpi="63.901615">
      <g
         transform="translate(0,-42.666668)"
         id="g4284">
        <path
           style="opacity:0.25;fill:none;fill-rule:evenodd;stroke:#000000;stroke-width:3.7795279;stroke-linecap:butt;stroke-linejoin:miter;stroke-miterlimit:4;stroke-dasharray:none;stroke-opacity:1"
           d="m 55.267952,867.34503 1015.420548,0"
           id="path4168"
           inkscape:connector-curvature="0" />
        <path
           inkscape:connector-curvature="0"
           id="path4243"
           d="m 55.267952,881.29758 1015.420548,0"
           style="opacity:0.25;fill:none;fill-rule:evenodd;stroke:#000000;stroke-width:3.7795279;stroke-linecap:butt;stroke-linejoin:miter;stroke-miterlimit:4;stroke-dasharray:none;stroke-opacity:1" />
        <path
           style="opacity:0.25;fill:none;fill-rule:evenodd;stroke:#000000;stroke-width:3.7795279;stroke-linecap:butt;stroke-linejoin:miter;stroke-miterlimit:4;stroke-dasharray:none;stroke-opacity:1"
           d="m 55.267952,895.25012 1015.420548,0"
           id="path4245"
           inkscape:connector-curvature="0" />
        <path
           inkscape:connector-curvature="0"
           id="path4247"
           d="m 55.267952,909.20268 1015.420548,0"
           style="opacity:0.25;fill:none;fill-rule:evenodd;stroke:#000000;stroke-width:3.7795279;stroke-linecap:butt;stroke-linejoin:miter;stroke-miterlimit:4;stroke-dasharray:none;stroke-opacity:1" />
        <path
           style="opacity:0.25;fill:none;fill-rule:evenodd;stroke:#000000;stroke-width:3.7795279;stroke-linecap:butt;stroke-linejoin:miter;stroke-miterlimit:4;stroke-dasharray:none;stroke-opacity:1"
           d="m 55.267952,923.15524 1015.420548,0"
           id="path4249"
           inkscape:connector-curvature="0" />
        <path
           inkscape:connector-curvature="0"
           id="path4252"
           d="m 55.267952,937.10779 1015.420548,0"
           style="opacity:0.25;fill:none;fill-rule:evenodd;stroke:#000000;stroke-width:3.7795279;stroke-linecap:butt;stroke-linejoin:miter;stroke-miterlimit:4;stroke-dasharray:none;stroke-opacity:1" />
        <path
           style="opacity:0.25;fill:none;fill-rule:evenodd;stroke:#000000;stroke-width:3.7795279;stroke-linecap:butt;stroke-linejoin:miter;stroke-miterlimit:4;stroke-dasharray:none;stroke-opacity:1"
           d="m 55.267952,951.06035 1015.420548,0"
           id="path4254"
           inkscape:connector-curvature="0" />
        <path
           inkscape:connector-curvature="0"
           id="path4256"
           d="m 55.267952,965.0129 1015.420548,0"
           style="opacity:0.25;fill:none;fill-rule:evenodd;stroke:#000000;stroke-width:3.7795279;stroke-linecap:butt;stroke-linejoin:miter;stroke-miterlimit:4;stroke-dasharray:none;stroke-opacity:1" />
        <path
           style="opacity:0.25;fill:none;fill-rule:evenodd;stroke:#000000;stroke-width:3.7795279;stroke-linecap:butt;stroke-linejoin:miter;stroke-miterlimit:4;stroke-dasharray:none;stroke-opacity:1"
           d="m 55.267952,978.96544 1015.420548,0"
           id="path4258"
           inkscape:connector-curvature="0" />
        <path
           inkscape:connector-curvature="0"
           id="path4260"
           d="m 55.267952,992.918 1015.420548,0"
           style="opacity:0.25;fill:none;fill-rule:evenodd;stroke:#000000;stroke-width:3.7795279;stroke-linecap:butt;stroke-linejoin:miter;stroke-miterlimit:4;stroke-dasharray:none;stroke-opacity:1" />
        <path
           style="opacity:0.25;fill:none;fill-rule:evenodd;stroke:#000000;stroke-width:3.7795279;stroke-linecap:butt;stroke-linejoin:miter;stroke-miterlimit:4;stroke-dasharray:none;stroke-opacity:1"
           d="m 55.267952,1006.8706 1015.420548,0"
           id="path4262"
           inkscape:connector-curvature="0" />
        <path
           inkscape:connector-curvature="0"
           id="path4264"
           d="m 55.267981,853.39248 1015.420519,0"
           style="opacity:0.25;fill:none;fill-rule:evenodd;stroke:#000000;stroke-width:3.7795279;stroke-linecap:butt;stroke-linejoin:miter;stroke-miterlimit:4;stroke-dasharray:none;stroke-opacity:1" />
        <path
           style="opacity:0.25;fill:none;fill-rule:evenodd;stroke:#000000;stroke-width:3.7795279;stroke-linecap:butt;stroke-linejoin:miter;stroke-miterlimit:4;stroke-dasharray:none;stroke-opacity:1"
           d="m 55.267923,1020.8232 1015.420577,0"
           id="path4266"
           inkscape:connector-curvature="0" />
      </g>
      <g
         transform="translate(0,-42.666668)"
         style="stroke-width:7.55905581;stroke-miterlimit:4;stroke-dasharray:none"
         id="g4299">
        <path
           inkscape:connector-curvature="0"
           id="path4301"
           d="m 55.267952,867.34503 1015.420548,0"
           style="opacity:0.25;fill:none;fill-rule:evenodd;stroke:#000000;stroke-width:7.55905581;stroke-linecap:butt;stroke-linejoin:miter;stroke-miterlimit:4;stroke-dasharray:none;stroke-opacity:1" />
        <path
           style="opacity:0.25;fill:none;fill-rule:evenodd;stroke:#000000;stroke-width:7.55905581;stroke-linecap:butt;stroke-linejoin:miter;stroke-miterlimit:4;stroke-dasharray:none;stroke-opacity:1"
           d="m 55.267952,881.29758 1015.420548,0"
           id="path4303"
           inkscape:connector-curvature="0" />
        <path
           inkscape:connector-curvature="0"
           id="path4305"
           d="m 55.267952,895.25012 1015.420548,0"
           style="opacity:0.25;fill:none;fill-rule:evenodd;stroke:#000000;stroke-width:7.55905581;stroke-linecap:butt;stroke-linejoin:miter;stroke-miterlimit:4;stroke-dasharray:none;stroke-opacity:1" />
        <path
           style="opacity:0.25;fill:none;fill-rule:evenodd;stroke:#000000;stroke-width:7.55905581;stroke-linecap:butt;stroke-linejoin:miter;stroke-miterlimit:4;stroke-dasharray:none;stroke-opacity:1"
           d="m 55.267952,909.20268 1015.420548,0"
           id="path4307"
           inkscape:connector-curvature="0" />
        <path
           inkscape:connector-curvature="0"
           id="path4309"
           d="m 55.267952,923.15524 1015.420548,0"
           style="opacity:0.25;fill:none;fill-rule:evenodd;stroke:#000000;stroke-width:7.55905581;stroke-linecap:butt;stroke-linejoin:miter;stroke-miterlimit:4;stroke-dasharray:none;stroke-opacity:1" />
        <path
           style="opacity:0.25;fill:none;fill-rule:evenodd;stroke:#000000;stroke-width:7.55905581;stroke-linecap:butt;stroke-linejoin:miter;stroke-miterlimit:4;stroke-dasharray:none;stroke-opacity:1"
           d="m 55.267952,937.10779 1015.420548,0"
           id="path4312"
           inkscape:connector-curvature="0" />
        <path
           inkscape:connector-curvature="0"
           id="path4314"
           d="m 55.267952,951.06035 1015.420548,0"
           style="opacity:0.25;fill:none;fill-rule:evenodd;stroke:#000000;stroke-width:7.55905581;stroke-linecap:butt;stroke-linejoin:miter;stroke-miterlimit:4;stroke-dasharray:none;stroke-opacity:1" />
        <path
           style="opacity:0.25;fill:none;fill-rule:evenodd;stroke:#000000;stroke-width:7.55905581;stroke-linecap:butt;stroke-linejoin:miter;stroke-miterlimit:4;stroke-dasharray:none;stroke-opacity:1"
           d="m 55.267952,965.0129 1015.420548,0"
           id="path4316"
           inkscape:connector-curvature="0" />
        <path
           inkscape:connector-curvature="0"
           id="path4318"
           d="m 55.267952,978.96544 1015.420548,0"
           style="opacity:0.25;fill:none;fill-rule:evenodd;stroke:#000000;stroke-width:7.55905581;stroke-linecap:butt;stroke-linejoin:miter;stroke-miterlimit:4;stroke-dasharray:none;stroke-opacity:1" />
        <path
           style="opacity:0.25;fill:none;fill-rule:evenodd;stroke:#000000;stroke-width:7.55905581;stroke-linecap:butt;stroke-linejoin:miter;stroke-miterlimit:4;stroke-dasharray:none;stroke-opacity:1"
           d="m 55.267952,992.918 1015.420548,0"
           id="path4320"
           inkscape:connector-curvature="0" />
        <path
           inkscape:connector-curvature="0"
           id="path4322"
           d="m 55.267952,1006.8706 1015.420548,0"
           style="opacity:0.25;fill:none;fill-rule:evenodd;stroke:#000000;stroke-width:7.55905581;stroke-linecap:butt;stroke-linejoin:miter;stroke-miterlimit:4;stroke-dasharray:none;stroke-opacity:1" />
        <path
           style="opacity:0.25;fill:none;fill-rule:evenodd;stroke:#000000;stroke-width:7.55905581;stroke-linecap:butt;stroke-linejoin:miter;stroke-miterlimit:4;stroke-dasharray:none;stroke-opacity:1"
           d="m 55.267981,853.39248 1015.420519,0"
           id="path4324"
           inkscape:connector-curvature="0" />
        <path
           inkscape:connector-curvature="0"
           id="path4326"
           d="m 55.267923,1020.8232 1015.420577,0"
           style="opacity:0.25;fill:none;fill-rule:evenodd;stroke:#000000;stroke-width:7.55905581;stroke-linecap:butt;stroke-linejoin:miter;stroke-miterlimit:4;stroke-dasharray:none;stroke-opacity:1" />
      </g>
    </g>
  </g>
</svg>
