<?xml version="1.0" encoding="UTF-8" standalone="no"?>
<!-- Created with Inkscape (http://www.inkscape.org/) -->

<svg
   xmlns:dc="http://purl.org/dc/elements/1.1/"
   xmlns:cc="http://creativecommons.org/ns#"
   xmlns:rdf="http://www.w3.org/1999/02/22-rdf-syntax-ns#"
   xmlns:svg="http://www.w3.org/2000/svg"
   xmlns="http://www.w3.org/2000/svg"
   xmlns:sodipodi="http://sodipodi.sourceforge.net/DTD/sodipodi-0.dtd"
   xmlns:inkscape="http://www.inkscape.org/namespaces/inkscape"
   width="290mm"
   height="28mm"
   id="svg2"
   version="1.1"
   inkscape:version="0.91 r13725"
   sodipodi:docname="logo.svg"
   viewBox="0 0 1096.063 105.82678"
   inkscape:export-filename="/home/laurence/src/kotlin-argparser/logo.png"
   inkscape:export-xdpi="63.895985"
   inkscape:export-ydpi="63.895985">
  <defs
     id="defs4" />
  <sodipodi:namedview
     id="base"
     pagecolor="#ffffff"
     bordercolor="#666666"
     borderopacity="1.0"
     inkscape:pageopacity="0.0"
     inkscape:pageshadow="2"
     inkscape:zoom="1.3891605"
     inkscape:cx="505.02709"
     inkscape:cy="113.38581"
     inkscape:document-units="in"
     inkscape:current-layer="layer1"
     showgrid="false"
     inkscape:window-width="956"
     inkscape:window-height="1152"
     inkscape:window-x="0"
     inkscape:window-y="206"
     inkscape:window-maximized="0"
     units="mm"
     inkscape:snap-global="true"
     inkscape:snap-nodes="true"
     inkscape:snap-intersection-paths="true"
     inkscape:object-nodes="true"
     inkscape:snap-midpoints="true"
     showguides="true"
     inkscape:guide-bbox="true" />
  <metadata
     id="metadata7">
    <rdf:RDF>
      <cc:Work
         rdf:about="">
        <dc:format>image/svg+xml</dc:format>
        <dc:type
           rdf:resource="http://purl.org/dc/dcmitype/StillImage" />
        <dc:title></dc:title>
      </cc:Work>
    </rdf:RDF>
  </metadata>
  <g
     inkscape:label="Layer 1"
     inkscape:groupmode="layer"
     id="layer1"
     transform="translate(0,-946.57257)">
    <g
       id="g4185"
       transform="translate(-18.897705,68.068761)">
      <rect
         style="opacity:1;fill:#000000;fill-opacity:1;stroke:#57ff27;stroke-width:3.77952814;stroke-linecap:square;stroke-linejoin:round;stroke-miterlimit:10;stroke-dasharray:none;stroke-dashoffset:0;stroke-opacity:0.37647059"
         id="rect4197"
         width="1077.2404"
         height="94.875046"
         x="28.308992"
         y="883.97968"
         ry="15.468747"
         inkscape:export-xdpi="63.901615"
         inkscape:export-ydpi="63.901615" />
      <g
         id="text4190"
         style="font-style:normal;font-variant:normal;font-weight:normal;font-stretch:normal;font-size:60.45724869px;line-height:125%;font-family:'Droid Sans';-inkscape-font-specification:'Droid Sans';text-align:end;letter-spacing:0px;word-spacing:0px;text-anchor:end;fill:#09e32a;fill-opacity:1;stroke:none;stroke-width:1px;stroke-linecap:butt;stroke-linejoin:miter;stroke-opacity:1"
         transform="scale(0.94280902,1.0606602)">
        <path
           inkscape:connector-curvature="0"
           id="path4171"
           style="font-style:normal;font-variant:normal;font-weight:normal;font-stretch:normal;font-family:'C64 Pro Mono';-inkscape-font-specification:'C64 Pro Mono';fill:#09e32a;fill-opacity:1"
           d="m 61.891255,900.81323 0,-52.90009 15.114312,0 0,15.11431 7.557156,0 0,-7.55715 7.557156,0 0,-7.55716 15.114311,0 0,7.55716 -7.557155,0 0,7.55715 -7.557156,0 0,7.55716 -7.557156,0 0,7.55715 7.557156,0 0,7.55716 7.557156,0 0,7.55716 7.557155,0 0,7.55715 -15.114311,0 0,-7.55715 -7.557156,0 0,-7.55716 -7.557156,0 0,15.11431 -15.114312,0 z" />
        <path
           inkscape:connector-curvature="0"
           id="path4173"
           style="font-style:normal;font-variant:normal;font-weight:normal;font-stretch:normal;font-family:'C64 Pro Mono';-inkscape-font-specification:'C64 Pro Mono';fill:#09e32a;fill-opacity:1"
           d="m 129.90566,900.81323 0,-7.55715 -7.55716,0 0,-22.67147 7.55716,0 0,-7.55716 30.22862,0 0,7.55716 7.55716,0 0,22.67147 -7.55716,0 0,7.55715 -30.22862,0 z m 7.55716,-7.55715 15.11431,0 0,-22.67147 -15.11431,0 0,22.67147 z" />
        <path
           inkscape:connector-curvature="0"
           id="path4175"
           style="font-style:normal;font-variant:normal;font-weight:normal;font-stretch:normal;font-family:'C64 Pro Mono';-inkscape-font-specification:'C64 Pro Mono';fill:#09e32a;fill-opacity:1"
           d="m 213.03438,855.4703 0,7.55715 15.11431,0 0,7.55716 -15.11431,0 0,22.67147 15.11431,0 0,7.55715 -22.67147,0 0,-7.55715 -7.55716,0 0,-22.67147 -15.11431,0 0,-7.55716 15.11431,0 0,-7.55715 15.11432,0 z" />
        <path
           inkscape:connector-curvature="0"
           id="path4177"
           style="font-style:normal;font-variant:normal;font-weight:normal;font-stretch:normal;font-family:'C64 Pro Mono';-inkscape-font-specification:'C64 Pro Mono';fill:#09e32a;fill-opacity:1"
           d="m 273.49163,855.4703 0,37.78578 7.55716,0 0,7.55715 -30.22863,0 0,-7.55715 7.55716,0 0,-30.22863 -7.55716,0 0,-7.55715 22.67147,0 z" />
        <path
           inkscape:connector-curvature="0"
           id="path4179"
           style="font-style:normal;font-variant:normal;font-weight:normal;font-stretch:normal;font-family:'C64 Pro Mono';-inkscape-font-specification:'C64 Pro Mono';fill:#09e32a;fill-opacity:1"
           d="m 311.27741,900.81323 0,-7.55715 7.55715,0 0,-15.11432 -7.55715,0 0,-7.55715 22.67146,0 0,22.67147 7.55716,0 0,7.55715 -30.22862,0 z m 7.55715,-37.78578 0,-7.55715 15.11431,0 0,7.55715 -15.11431,0 z" />
        <path
           inkscape:connector-curvature="0"
           id="path4181"
           style="font-style:normal;font-variant:normal;font-weight:normal;font-stretch:normal;font-family:'C64 Pro Mono';-inkscape-font-specification:'C64 Pro Mono';fill:#09e32a;fill-opacity:1"
           d="m 364.17751,900.81323 0,-37.78578 37.78578,0 0,7.55716 7.55716,0 0,30.22862 -15.11432,0 0,-30.22862 -15.11431,0 0,30.22862 -15.11431,0 z" />
        <path
           inkscape:connector-curvature="0"
           id="path4183"
           style="font-style:normal;font-variant:normal;font-weight:normal;font-stretch:normal;font-family:'C64 Pro Mono';-inkscape-font-specification:'C64 Pro Mono';fill:#09e32a;fill-opacity:1"
           d="m 485.092,878.14176 0,-7.55715 45.34294,0 0,7.55715 -45.34294,0 z" />
        <path
           inkscape:connector-curvature="0"
           id="path4185"
           style="font-style:normal;font-variant:normal;font-weight:normal;font-stretch:normal;font-family:'C64 Pro Mono';-inkscape-font-specification:'C64 Pro Mono';fill:#09e32a;fill-opacity:1"
           d="m 545.54924,878.14176 0,-7.55715 45.34294,0 0,7.55715 -45.34294,0 z" />
        <path
           inkscape:connector-curvature="0"
           id="path4187"
           style="font-style:normal;font-variant:normal;font-weight:normal;font-stretch:normal;font-family:'C64 Pro Mono';-inkscape-font-specification:'C64 Pro Mono';fill:#09e32a;fill-opacity:1"
           d="m 613.56365,900.81323 0,-7.55715 -7.55716,0 0,-7.55716 7.55716,0 0,-7.55716 22.67146,0 0,-7.55715 -22.67146,0 0,-7.55716 30.22862,0 0,7.55716 7.55716,0 0,30.22862 -37.78578,0 z m 7.55715,-7.55715 15.11431,0 0,-7.55716 -15.11431,0 0,7.55716 z" />
        <path
           inkscape:connector-curvature="0"
           id="path4189"
           style="font-style:normal;font-variant:normal;font-weight:normal;font-stretch:normal;font-family:'C64 Pro Mono';-inkscape-font-specification:'C64 Pro Mono';fill:#09e32a;fill-opacity:1"
           d="m 666.46376,900.81323 0,-37.78578 37.78579,0 0,7.55716 7.55715,0 0,7.55715 -15.11431,0 0,-7.55715 -15.11431,0 0,30.22862 -15.11432,0 z" />
        <path
           inkscape:connector-curvature="0"
           id="path4191"
           style="font-style:normal;font-variant:normal;font-weight:normal;font-stretch:normal;font-family:'C64 Pro Mono';-inkscape-font-specification:'C64 Pro Mono';fill:#09e32a;fill-opacity:1"
           d="m 726.92098,908.37039 0,-7.55716 30.22862,0 0,-7.55715 -22.67146,0 0,-7.55716 -7.55716,0 0,-15.11431 7.55716,0 0,-7.55716 37.78578,0 0,37.78578 -7.55716,0 0,7.55716 -37.78578,0 z m 15.11431,-22.67147 15.11431,0 0,-15.11431 -15.11431,0 0,15.11431 z" />
        <path
           inkscape:connector-curvature="0"
           id="path4193"
           style="font-style:normal;font-variant:normal;font-weight:normal;font-stretch:normal;font-family:'C64 Pro Mono';-inkscape-font-specification:'C64 Pro Mono';fill:#09e32a;fill-opacity:1"
           d="m 787.37825,908.37039 0,-45.34294 37.78578,0 0,7.55716 7.55716,0 0,15.11431 -7.55716,0 0,7.55716 -22.67146,0 0,15.11431 -15.11432,0 z m 15.11432,-22.67147 15.11431,0 0,-15.11431 -15.11431,0 0,15.11431 z" />
        <path
           inkscape:connector-curvature="0"
           id="path4195"
           style="font-style:normal;font-variant:normal;font-weight:normal;font-stretch:normal;font-family:'C64 Pro Mono';-inkscape-font-specification:'C64 Pro Mono';fill:#09e32a;fill-opacity:1"
           d="m 855.39262,900.81323 0,-7.55715 -7.55715,0 0,-7.55716 7.55715,0 0,-7.55716 22.67147,0 0,-7.55715 -22.67147,0 0,-7.55716 30.22863,0 0,7.55716 7.55716,0 0,30.22862 -37.78579,0 z m 7.55716,-7.55715 15.11431,0 0,-7.55716 -15.11431,0 0,7.55716 z" />
        <path
           inkscape:connector-curvature="0"
           id="path4197"
           style="font-style:normal;font-variant:normal;font-weight:normal;font-stretch:normal;font-family:'C64 Pro Mono';-inkscape-font-specification:'C64 Pro Mono';fill:#09e32a;fill-opacity:1"
           d="m 908.29274,900.81323 0,-37.78578 37.78578,0 0,7.55716 7.55716,0 0,7.55715 -15.11431,0 0,-7.55715 -15.11431,0 0,30.22862 -15.11432,0 z" />
        <path
           inkscape:connector-curvature="0"
           id="path4199"
           style="font-style:normal;font-variant:normal;font-weight:normal;font-stretch:normal;font-family:'C64 Pro Mono';-inkscape-font-specification:'C64 Pro Mono';fill:#09e32a;fill-opacity:1"
           d="m 1014.0929,863.02745 0,7.55716 -30.22863,0 0,7.55715 22.67143,0 0,7.55716 7.5572,0 0,7.55716 -7.5572,0 0,7.55715 -37.78574,0 0,-7.55715 30.22862,0 0,-7.55716 -22.67147,0 0,-7.55716 -7.55715,0 0,-7.55715 7.55715,0 0,-7.55716 37.78579,0 z" />
        <path
           inkscape:connector-curvature="0"
           id="path4201"
           style="font-style:normal;font-variant:normal;font-weight:normal;font-stretch:normal;font-family:'C64 Pro Mono';-inkscape-font-specification:'C64 Pro Mono';fill:#09e32a;fill-opacity:1"
           d="m 1059.4359,870.58461 -15.1144,0 0,7.55715 15.1144,0 0,-7.55715 z m 7.5571,-7.55716 0,7.55716 7.5572,0 0,15.11431 -30.2287,0 0,7.55716 22.6715,0 0,7.55715 -30.2286,0 0,-7.55715 -7.5572,0 0,-22.67147 7.5572,0 0,-7.55716 30.2286,0 z" />
        <path
           inkscape:connector-curvature="0"
           id="path4203"
           style="font-style:normal;font-variant:normal;font-weight:normal;font-stretch:normal;font-family:'C64 Pro Mono';-inkscape-font-specification:'C64 Pro Mono';fill:#09e32a;fill-opacity:1"
           d="m 1089.6644,900.81323 0,-37.78578 37.7858,0 0,7.55716 7.5572,0 0,7.55715 -15.1143,0 0,-7.55715 -15.1143,0 0,30.22862 -15.1144,0 z" />
      </g>
      <g
         transform="matrix(0.99781444,0,0,0.96039177,9.43457,-167.75129)"
         id="g4435">
        <g
           id="g4352"
           transform="translate(1.1935321,-64.000002)">
          <path
             style="opacity:0.25;fill:none;fill-rule:evenodd;stroke:#000000;stroke-width:3.86089969;stroke-linecap:butt;stroke-linejoin:miter;stroke-miterlimit:4;stroke-dasharray:none;stroke-opacity:1"
             d="m 44.38235,1175.1391 1026.27965,0"
             id="path4354"
             inkscape:connector-curvature="0" />
          <path
             inkscape:connector-curvature="0"
             id="path4356"
             d="m 44.38235,1175.1391 1026.27965,0"
             style="opacity:0.25;fill:none;fill-rule:evenodd;stroke:#000000;stroke-width:7.72179937;stroke-linecap:butt;stroke-linejoin:miter;stroke-miterlimit:4;stroke-dasharray:none;stroke-opacity:1" />
        </g>
        <g
           transform="translate(1.1935321,-55.659743)"
           id="g4358">
          <path
             inkscape:connector-curvature="0"
             id="path4360"
             d="m 44.38235,1175.1391 1026.27965,0"
             style="opacity:0.25;fill:none;fill-rule:evenodd;stroke:#000000;stroke-width:3.86089969;stroke-linecap:butt;stroke-linejoin:miter;stroke-miterlimit:4;stroke-dasharray:none;stroke-opacity:1" />
          <path
             style="opacity:0.25;fill:none;fill-rule:evenodd;stroke:#000000;stroke-width:7.72179937;stroke-linecap:butt;stroke-linejoin:miter;stroke-miterlimit:4;stroke-dasharray:none;stroke-opacity:1"
             d="m 44.38235,1175.1391 1026.27965,0"
             id="path4362"
             inkscape:connector-curvature="0" />
        </g>
        <g
           id="g4364"
           transform="translate(1.1935321,-47.319487)">
          <path
             style="opacity:0.25;fill:none;fill-rule:evenodd;stroke:#000000;stroke-width:3.86089969;stroke-linecap:butt;stroke-linejoin:miter;stroke-miterlimit:4;stroke-dasharray:none;stroke-opacity:1"
             d="m 44.38235,1175.1391 1026.27965,0"
             id="path4366"
             inkscape:connector-curvature="0" />
          <path
             inkscape:connector-curvature="0"
             id="path4368"
             d="m 44.38235,1175.1391 1026.27965,0"
             style="opacity:0.25;fill:none;fill-rule:evenodd;stroke:#000000;stroke-width:7.72179937;stroke-linecap:butt;stroke-linejoin:miter;stroke-miterlimit:4;stroke-dasharray:none;stroke-opacity:1" />
        </g>
        <g
           transform="translate(1.1935321,-38.97922)"
           id="g4370">
          <path
             inkscape:connector-curvature="0"
             id="path4372"
             d="m 44.38235,1175.1391 1026.27965,0"
             style="opacity:0.25;fill:none;fill-rule:evenodd;stroke:#000000;stroke-width:3.86089969;stroke-linecap:butt;stroke-linejoin:miter;stroke-miterlimit:4;stroke-dasharray:none;stroke-opacity:1" />
          <path
             style="opacity:0.25;fill:none;fill-rule:evenodd;stroke:#000000;stroke-width:7.72179937;stroke-linecap:butt;stroke-linejoin:miter;stroke-miterlimit:4;stroke-dasharray:none;stroke-opacity:1"
             d="m 44.38235,1175.1391 1026.27965,0"
             id="path4374"
             inkscape:connector-curvature="0" />
        </g>
        <g
           id="g4376"
           transform="translate(1.1935321,-30.638969)">
          <path
             style="opacity:0.25;fill:none;fill-rule:evenodd;stroke:#000000;stroke-width:3.86089969;stroke-linecap:butt;stroke-linejoin:miter;stroke-miterlimit:4;stroke-dasharray:none;stroke-opacity:1"
             d="m 44.38235,1175.1391 1026.27965,0"
             id="path4378"
             inkscape:connector-curvature="0" />
          <path
             inkscape:connector-curvature="0"
             id="path4380"
             d="m 44.38235,1175.1391 1026.27965,0"
             style="opacity:0.25;fill:none;fill-rule:evenodd;stroke:#000000;stroke-width:7.72179937;stroke-linecap:butt;stroke-linejoin:miter;stroke-miterlimit:4;stroke-dasharray:none;stroke-opacity:1" />
        </g>
        <g
           transform="translate(1.1935321,-22.298709)"
           id="g4382">
          <path
             inkscape:connector-curvature="0"
             id="path4384"
             d="m 44.38235,1175.1391 1026.27965,0"
             style="opacity:0.25;fill:none;fill-rule:evenodd;stroke:#000000;stroke-width:3.86089969;stroke-linecap:butt;stroke-linejoin:miter;stroke-miterlimit:4;stroke-dasharray:none;stroke-opacity:1" />
          <path
             style="opacity:0.25;fill:none;fill-rule:evenodd;stroke:#000000;stroke-width:7.72179937;stroke-linecap:butt;stroke-linejoin:miter;stroke-miterlimit:4;stroke-dasharray:none;stroke-opacity:1"
             d="m 44.38235,1175.1391 1026.27965,0"
             id="path4386"
             inkscape:connector-curvature="0" />
        </g>
        <g
           id="g4388"
           transform="translate(1.1935321,-13.95845)">
          <path
             style="opacity:0.25;fill:none;fill-rule:evenodd;stroke:#000000;stroke-width:3.86089969;stroke-linecap:butt;stroke-linejoin:miter;stroke-miterlimit:4;stroke-dasharray:none;stroke-opacity:1"
             d="m 44.38235,1175.1391 1026.27965,0"
             id="path4390"
             inkscape:connector-curvature="0" />
          <path
             inkscape:connector-curvature="0"
             id="path4392"
             d="m 44.38235,1175.1391 1026.27965,0"
             style="opacity:0.25;fill:none;fill-rule:evenodd;stroke:#000000;stroke-width:7.72179937;stroke-linecap:butt;stroke-linejoin:miter;stroke-miterlimit:4;stroke-dasharray:none;stroke-opacity:1" />
        </g>
        <g
           transform="translate(1.1935321,-5.6181908)"
           id="g4394">
          <path
             inkscape:connector-curvature="0"
             id="path4396"
             d="m 44.38235,1175.1391 1026.27965,0"
             style="opacity:0.25;fill:none;fill-rule:evenodd;stroke:#000000;stroke-width:3.86089969;stroke-linecap:butt;stroke-linejoin:miter;stroke-miterlimit:4;stroke-dasharray:none;stroke-opacity:1" />
          <path
             style="opacity:0.25;fill:none;fill-rule:evenodd;stroke:#000000;stroke-width:7.72179937;stroke-linecap:butt;stroke-linejoin:miter;stroke-miterlimit:4;stroke-dasharray:none;stroke-opacity:1"
             d="m 44.38235,1175.1391 1026.27965,0"
             id="path4398"
             inkscape:connector-curvature="0" />
        </g>
        <g
           id="g4400"
           transform="translate(1.1935321,2.72207)">
          <path
             style="opacity:0.25;fill:none;fill-rule:evenodd;stroke:#000000;stroke-width:3.86089969;stroke-linecap:butt;stroke-linejoin:miter;stroke-miterlimit:4;stroke-dasharray:none;stroke-opacity:1"
             d="m 44.38235,1175.1391 1026.27965,0"
             id="path4402"
             inkscape:connector-curvature="0" />
          <path
             inkscape:connector-curvature="0"
             id="path4404"
             d="m 44.38235,1175.1391 1026.27965,0"
             style="opacity:0.25;fill:none;fill-rule:evenodd;stroke:#000000;stroke-width:7.72179937;stroke-linecap:butt;stroke-linejoin:miter;stroke-miterlimit:4;stroke-dasharray:none;stroke-opacity:1" />
        </g>
      </g>
    </g>
  </g>
</svg>
